{
    "asset" : {
        "generator" : "Khronos glTF Blender I/O v1.8.19",
        "version" : "2.0"
    },
    "extensionsUsed" : [
        "KHR_materials_transmission"
    ],
    "scene" : 0,
    "scenes" : [
        {
            "name" : "Scene",
            "nodes" : [
                0,
                1,
                2,
                3,
                4,
                5
            ]
        }
    ],
    "nodes" : [
        {
            "mesh" : 0,
            "name" : "Sphere",
            "scale" : [
                1,
                -1,
                1
            ],
            "translation" : [
                0,
                -1.0911694765090942,
                0
            ]
        },
        {
            "mesh" : 1,
            "name" : "Cylinder",
            "scale" : [
                0.23265601694583893,
                -0.14038754999637604,
                0.23265601694583893
            ],
            "translation" : [
                0,
                0.8010541200637817,
                0
            ]
        },
        {
            "mesh" : 2,
            "name" : "insideglass",
            "scale" : [
                0.07549601793289185,
                -0.3506348729133606,
                0.07549601793289185
            ],
            "translation" : [
                0,
                0.2844674587249756,
                0
            ]
        },
        {
            "mesh" : 3,
            "name" : "light",
            "rotation" : [
                -0.4979552626609802,
                0.5020363926887512,
                0.5020363926887512,
                0.4979552626609802
            ],
            "scale" : [
                0.010944190435111523,
                -0.010226866230368614,
                0.010944229550659657
            ],
            "translation" : [
                -0.3439078629016876,
                -1.0911694765090942,
                0
            ]
        },
        {
            "mesh" : 4,
            "name" : "holder2",
            "rotation" : [
                0.5316755771636963,
                0.47685471177101135,
                -0.5188202857971191,
                -0.46984702348709106
            ],
            "scale" : [
                0.01342634204775095,
                -0.01342634204775095,
                0.011363828554749489
            ],
            "translation" : [
                0.3246783912181854,
                -1.087169885635376,
                0.0061720749363303185
            ]
        },
        {
            "mesh" : 4,
            "name" : "holder1",
            "rotation" : [
                0.5316755771636963,
                -0.47685471177101135,
                0.5188202857971191,
                -0.46984702348709106
            ],
            "scale" : [
                -0.01342634204775095,
                -0.01342634204775095,
                0.011363828554749489
            ],
            "translation" : [
                -0.341302752494812,
                -1.0895214080810547,
                0.0037560900673270226
            ]
        }
    ],
    "materials" : [
        {
            "alphaMode" : "BLEND",
            "extensions" : {
                "KHR_materials_transmission" : {
                    "transmissionFactor" : 1
                }
            },
            "name" : "Material.001",
            "pbrMetallicRoughness" : {
                "baseColorFactor" : [
                    0.800000011920929,
                    0.800000011920929,
                    0.800000011920929,
                    1
                ],
                "metallicFactor" : 0,
                "roughnessFactor" : 0.072727270424366
            }
        },
        {
            "doubleSided" : true,
            "name" : "Material.004",
            "pbrMetallicRoughness" : {
                "baseColorFactor" : [
                    0.4933510422706604,
                    0.4933510422706604,
                    0.4933510422706604,
                    1
                ],
                "metallicFactor" : 0.41818180680274963,
                "roughnessFactor" : 0.15454547107219696
            }
        },
        {
            "alphaMode" : "BLEND",
            "extensions" : {
                "KHR_materials_transmission" : {
                    "transmissionFactor" : 1
                }
            },
            "name" : "Material.002",
            "pbrMetallicRoughness" : {
                "baseColorFactor" : [
                    0.800000011920929,
                    0.800000011920929,
                    0.800000011920929,
                    1
                ],
                "metallicFactor" : 0,
                "roughnessFactor" : 0.18636363744735718
            }
        },
        {
            "alphaMode" : "BLEND",
            "doubleSided" : true,
            "emissiveFactor" : [
                1,
                1,
                1
            ],
            "name" : "Material.005",
            "pbrMetallicRoughness" : {}
        },
        {
            "doubleSided" : true,
            "name" : "Material.003",
            "pbrMetallicRoughness" : {
                "baseColorFactor" : [
                    0.06039242073893547,
                    0.06039242073893547,
                    0.06039242073893547,
                    1
                ],
                "roughnessFactor" : 0.5
            }
        }
    ],
    "meshes" : [
        {
            "name" : "Sphere",
            "primitives" : [
                {
                    "attributes" : {
                        "POSITION" : 0,
                        "NORMAL" : 1,
                        "TANGENT" : 2,
                        "TEXCOORD_0" : 3
                    },
                    "indices" : 4,
                    "material" : 0
                }
            ]
        },
        {
            "name" : "Cylinder.001",
            "primitives" : [
                {
                    "attributes" : {
                        "POSITION" : 5,
                        "NORMAL" : 6,
                        "TEXCOORD_0" : 7
                    },
                    "indices" : 8,
                    "material" : 1
                }
            ]
        },
        {
            "name" : "Cylinder.002",
            "primitives" : [
                {
                    "attributes" : {
                        "POSITION" : 9,
                        "NORMAL" : 10,
                        "TEXCOORD_0" : 11
                    },
                    "indices" : 12,
                    "material" : 2
                }
            ]
        },
        {
            "name" : "Circle.004",
            "primitives" : [
                {
                    "attributes" : {
                        "POSITION" : 13,
                        "NORMAL" : 14,
                        "TANGENT" : 15,
                        "TEXCOORD_0" : 16
                    },
                    "indices" : 17,
                    "material" : 3
                }
            ]
        },
        {
            "name" : "Circle.007",
            "primitives" : [
                {
                    "attributes" : {
                        "POSITION" : 18,
                        "NORMAL" : 19,
                        "TEXCOORD_0" : 20
                    },
                    "indices" : 21,
                    "material" : 4
                }
            ]
        }
    ],
    "accessors" : [
        {
            "bufferView" : 0,
            "componentType" : 5126,
            "count" : 678,
            "max" : [
                0.9999997019767761,
                1,
                0.9999994039535522
            ],
            "min" : [
                -0.9999990463256836,
                -1.7622020244598389,
                -0.9999987483024597
            ],
            "type" : "VEC3"
        },
        {
            "bufferView" : 1,
            "componentType" : 5126,
            "count" : 678,
            "type" : "VEC3"
        },
        {
            "bufferView" : 2,
            "componentType" : 5126,
            "count" : 678,
            "type" : "VEC4"
        },
        {
            "bufferView" : 3,
            "componentType" : 5126,
            "count" : 678,
            "type" : "VEC2"
        },
        {
            "bufferView" : 4,
            "componentType" : 5123,
            "count" : 3264,
            "type" : "SCALAR"
        },
        {
            "bufferView" : 5,
            "componentType" : 5126,
            "count" : 3184,
            "max" : [
                1.1216946840286255,
                1.397002935409546,
                1.121694803237915
            ],
            "min" : [
                -1.121694803237915,
                -1.5357993841171265,
                -1.121694803237915
            ],
            "type" : "VEC3"
        },
        {
            "bufferView" : 6,
            "componentType" : 5126,
            "count" : 3184,
            "type" : "VEC3"
        },
        {
            "bufferView" : 7,
            "componentType" : 5126,
            "count" : 3184,
            "type" : "VEC2"
        },
        {
            "bufferView" : 8,
            "componentType" : 5123,
            "count" : 18036,
            "type" : "SCALAR"
        },
        {
            "bufferView" : 9,
            "componentType" : 5126,
            "count" : 792,
            "max" : [
                1,
                2.5111594200134277,
                1
            ],
            "min" : [
                -1,
                -1,
                -1
            ],
            "type" : "VEC3"
        },
        {
            "bufferView" : 10,
            "componentType" : 5126,
            "count" : 792,
            "type" : "VEC3"
        },
        {
            "bufferView" : 11,
            "componentType" : 5126,
            "count" : 792,
            "type" : "VEC2"
        },
        {
            "bufferView" : 12,
            "componentType" : 5123,
            "count" : 3828,
            "type" : "SCALAR"
        },
        {
            "bufferView" : 13,
            "componentType" : 5126,
            "count" : 5152,
            "max" : [
                4.435925483703613,
                65,
                4.435925483703613
            ],
            "min" : [
                -4.435925483703613,
                0,
                -4.435925483703613
            ],
            "type" : "VEC3"
        },
        {
            "bufferView" : 14,
            "componentType" : 5126,
            "count" : 5152,
            "type" : "VEC3"
        },
        {
            "bufferView" : 15,
            "componentType" : 5126,
            "count" : 5152,
            "type" : "VEC4"
        },
        {
            "bufferView" : 16,
            "componentType" : 5126,
            "count" : 5152,
            "type" : "VEC2"
        },
        {
            "bufferView" : 17,
            "componentType" : 5123,
            "count" : 30720,
            "type" : "SCALAR"
        },
        {
            "bufferView" : 18,
            "componentType" : 5126,
            "count" : 576,
            "max" : [
                78.56597900390625,
                8.140869140625,
                26.338733673095703
            ],
            "min" : [
                -4.587040901184082,
                -4.587040901184082,
                -1.5
            ],
            "type" : "VEC3"
        },
        {
            "bufferView" : 19,
            "componentType" : 5126,
            "count" : 576,
            "type" : "VEC3"
        },
        {
            "bufferView" : 20,
            "componentType" : 5126,
            "count" : 576,
            "type" : "VEC2"
        },
        {
            "bufferView" : 21,
            "componentType" : 5123,
            "count" : 3354,
            "type" : "SCALAR"
        }
    ],
    "bufferViews" : [
        {
            "buffer" : 0,
            "byteLength" : 8136,
            "byteOffset" : 0
        },
        {
            "buffer" : 0,
            "byteLength" : 8136,
            "byteOffset" : 8136
        },
        {
            "buffer" : 0,
            "byteLength" : 10848,
            "byteOffset" : 16272
        },
        {
            "buffer" : 0,
            "byteLength" : 5424,
            "byteOffset" : 27120
        },
        {
            "buffer" : 0,
            "byteLength" : 6528,
            "byteOffset" : 32544
        },
        {
            "buffer" : 0,
            "byteLength" : 38208,
            "byteOffset" : 39072
        },
        {
            "buffer" : 0,
            "byteLength" : 38208,
            "byteOffset" : 77280
        },
        {
            "buffer" : 0,
            "byteLength" : 25472,
            "byteOffset" : 115488
        },
        {
            "buffer" : 0,
            "byteLength" : 36072,
            "byteOffset" : 140960
        },
        {
            "buffer" : 0,
            "byteLength" : 9504,
            "byteOffset" : 177032
        },
        {
            "buffer" : 0,
            "byteLength" : 9504,
            "byteOffset" : 186536
        },
        {
            "buffer" : 0,
            "byteLength" : 6336,
            "byteOffset" : 196040
        },
        {
            "buffer" : 0,
            "byteLength" : 7656,
            "byteOffset" : 202376
        },
        {
            "buffer" : 0,
            "byteLength" : 61824,
            "byteOffset" : 210032
        },
        {
            "buffer" : 0,
            "byteLength" : 61824,
            "byteOffset" : 271856
        },
        {
            "buffer" : 0,
            "byteLength" : 82432,
            "byteOffset" : 333680
        },
        {
            "buffer" : 0,
            "byteLength" : 41216,
            "byteOffset" : 416112
        },
        {
            "buffer" : 0,
            "byteLength" : 61440,
            "byteOffset" : 457328
        },
        {
            "buffer" : 0,
            "byteLength" : 6912,
            "byteOffset" : 518768
        },
        {
            "buffer" : 0,
            "byteLength" : 6912,
            "byteOffset" : 525680
        },
        {
            "buffer" : 0,
            "byteLength" : 4608,
            "byteOffset" : 532592
        },
        {
            "buffer" : 0,
            "byteLength" : 6708,
            "byteOffset" : 537200
        }
    ],
    "buffers" : [
        {
            "byteLength" : 543908,
            "uri" : "data:application/octet-stream;base64,"
        }
    ]
}
